HIERARCHY
ROOT Hips
{
	OFFSET 0.000000 83.214638 0.000000
	CHANNELS 6 Xposition Yposition Zposition Xrotation Yrotation Zrotation
	JOINT Pelvis
	{
		OFFSET 0.000000 0.000000 0.000000
		CHANNELS 3 Xrotation Yrotation Zrotation
		JOINT LeftUpLeg
		{
			OFFSET 8.479700 -4.795502 -0.379100
			CHANNELS 3 Xrotation Yrotation Zrotation
			JOINT LeftLeg
			{
				OFFSET 0.024144 -32.555107 0.112900
				CHANNELS 3 Xrotation Yrotation Zrotation
				JOINT LeftFoot
				{
					OFFSET -0.024144 -32.638630 -3.012600
					CHANNELS 3 Xrotation Yrotation Zrotation
					JOINT LeftToeBase
					{
						OFFSET 0.970200 -13.225400 11.864200
						CHANNELS 3 Xrotation Yrotation Zrotation
						End Site
						{
							OFFSET 0.000000 12.319262 0.000000
						}
					}
					JOINT LFootTongue
					{
						OFFSET 1.142400 -1.059800 6.665200
						CHANNELS 3 Xrotation Yrotation Zrotation
						End Site
						{
							OFFSET 0.000000 12.319262 0.000000
						}
					}
				}
				JOINT LeftPantLeg
				{
					OFFSET 0.918482 -16.533964 -2.284700
					CHANNELS 3 Xrotation Yrotation Zrotation
					End Site
					{
						OFFSET 0.350399 24.744368 0.000000
					}
				}
			}
		}
		JOINT RightUpLeg
		{
			OFFSET -8.479700 -4.795502 -0.379100
			CHANNELS 3 Xrotation Yrotation Zrotation
			JOINT RightLeg
			{
				OFFSET -0.023144 -32.555092 0.112900
				CHANNELS 3 Xrotation Yrotation Zrotation
				JOINT RightFoot
				{
					OFFSET 0.023144 -32.638641 -3.012700
					CHANNELS 3 Xrotation Yrotation Zrotation
					JOINT RightToeBase
					{
						OFFSET -0.970200 -13.225400 11.864200
						CHANNELS 3 Xrotation Yrotation Zrotation
						End Site
						{
							OFFSET 0.000000 12.319244 0.000000
						}
					}
					JOINT RFootTongue
					{
						OFFSET -1.142200 -1.059800 6.665200
						CHANNELS 3 Xrotation Yrotation Zrotation
						End Site
						{
							OFFSET 0.000000 12.319243 0.000000
						}
					}
				}
				JOINT RightPantLeg
				{
					OFFSET -0.919482 -16.533978 -2.284800
					CHANNELS 3 Xrotation Yrotation Zrotation
					End Site
					{
						OFFSET -0.350400 24.744419 0.000000
					}
				}
			}
		}
	}
	JOINT Spine
	{
		OFFSET 0.000000 7.722000 1.166200
		CHANNELS 3 Xrotation Yrotation Zrotation
		JOINT Spine1
		{
			OFFSET 0.000000 12.024101 0.248800
			CHANNELS 3 Xrotation Yrotation Zrotation
			JOINT Spine2
			{
				OFFSET 0.000000 11.502998 -0.491200
				CHANNELS 3 Xrotation Yrotation Zrotation
				JOINT Neck
				{
					OFFSET 0.000000 18.430702 -3.123100
					CHANNELS 3 Xrotation Yrotation Zrotation
					JOINT Head
					{
						OFFSET 0.000000 9.051102 1.034000
						CHANNELS 3 Xrotation Yrotation Zrotation
						JOINT HairB
						{
							OFFSET 0.208400 24.786102 24.822300
							CHANNELS 3 Xrotation Yrotation Zrotation
							End Site
							{
								OFFSET 0.000000 32.263779 0.000000
							}
						}
						JOINT HairA
						{
							OFFSET -7.081100 24.428299 23.196600
							CHANNELS 3 Xrotation Yrotation Zrotation
							End Site
							{
								OFFSET 0.000000 32.263779 0.000000
							}
						}
						JOINT Hat
						{
							OFFSET 16.728800 15.048294 -15.439601
							CHANNELS 3 Xrotation Yrotation Zrotation
							End Site
							{
								OFFSET 0.000000 32.263779 0.000000
							}
						}
					}
				}
				JOINT LeftShoulder
				{
					OFFSET 6.197800 13.665199 -4.064700
					CHANNELS 3 Xrotation Yrotation Zrotation
					JOINT LeftArm
					{
						OFFSET 7.778100 -0.187103 -1.709300
						CHANNELS 3 Xrotation Yrotation Zrotation
						JOINT LeftForeArm
						{
							OFFSET 22.049376 0.000000 0.000000
							CHANNELS 3 Xrotation Yrotation Zrotation
							JOINT LeftHand
							{
								OFFSET 23.009392 0.000000 0.000000
								CHANNELS 3 Xrotation Yrotation Zrotation
								JOINT LeftHandThumb1
								{
									OFFSET 3.507191 -2.063065 3.133727
									CHANNELS 3 Xrotation Yrotation Zrotation
									JOINT LeftHandThumb2
									{
										OFFSET 3.101337 -1.790558 1.790558
										CHANNELS 3 Xrotation Yrotation Zrotation
										JOINT LeftHandThumb3
										{
											OFFSET 3.058640 -1.765907 1.765906
											CHANNELS 3 Xrotation Yrotation Zrotation
											End Site
											{
												OFFSET -0.415260 3.926476 -0.049563
											}
										}
									}
								}
								JOINT LeftHandIndex1
								{
									OFFSET 11.334419 -0.901459 3.706815
									CHANNELS 3 Xrotation Yrotation Zrotation
									JOINT LeftHandIndex2
									{
										OFFSET 3.283112 0.000000 0.000000
										CHANNELS 3 Xrotation Yrotation Zrotation
										JOINT LeftHandIndex3
										{
											OFFSET 3.323853 0.000000 0.000000
											CHANNELS 3 Xrotation Yrotation Zrotation
											End Site
											{
												OFFSET -1.135597 3.097809 0.402452
											}
										}
									}
								}
								JOINT LeftHandMiddle1
								{
									OFFSET 11.335861 0.000000 0.000000
									CHANNELS 3 Xrotation Yrotation Zrotation
									JOINT LeftHandMiddle2
									{
										OFFSET 3.410492 0.000000 0.000000
										CHANNELS 3 Xrotation Yrotation Zrotation
										JOINT LeftHandMiddle3
										{
											OFFSET 3.312172 0.000000 0.000000
											CHANNELS 3 Xrotation Yrotation Zrotation
											End Site
											{
												OFFSET -1.150200 3.080154 0.400270
											}
										}
									}
								}
								JOINT LeftHandRing1
								{
									OFFSET 11.514786 -0.013176 -3.003090
									CHANNELS 3 Xrotation Yrotation Zrotation
									JOINT LeftHandRing2
									{
										OFFSET 3.053307 0.000000 0.000000
										CHANNELS 3 Xrotation Yrotation Zrotation
										JOINT LeftHandRing3
										{
											OFFSET 3.295807 0.000000 0.000000
											CHANNELS 3 Xrotation Yrotation Zrotation
											End Site
											{
												OFFSET -1.281006 3.013344 0.375733
											}
										}
									}
								}
								JOINT LeftHandPinky1
								{
									OFFSET 10.518692 -0.960396 -5.730441
									CHANNELS 3 Xrotation Yrotation Zrotation
									JOINT LeftHandPinky2
									{
										OFFSET 2.861649 0.000000 0.000000
										CHANNELS 3 Xrotation Yrotation Zrotation
										JOINT LeftHandPinky3
										{
											OFFSET 2.863380 0.000000 0.000000
											CHANNELS 3 Xrotation Yrotation Zrotation
											End Site
											{
												OFFSET -0.843597 2.711159 0.369971
											}
										}
									}
								}
							}
							JOINT LSleeve
							{
								OFFSET 6.676277 -0.344902 -1.011730
								CHANNELS 3 Xrotation Yrotation Zrotation
								End Site
								{
									OFFSET 0.000000 14.885353 0.000000
								}
							}
						}
					}
				}
				JOINT RightShoulder
				{
					OFFSET -6.197800 13.665199 -4.064700
					CHANNELS 3 Xrotation Yrotation Zrotation
					JOINT RightArm
					{
						OFFSET -7.778100 -0.187103 -1.709300
						CHANNELS 3 Xrotation Yrotation Zrotation
						JOINT RightForeArm
						{
							OFFSET -22.049376 0.000000 0.000000
							CHANNELS 3 Xrotation Yrotation Zrotation
							JOINT RightHand
							{
								OFFSET -23.009392 0.000000 0.000000
								CHANNELS 3 Xrotation Yrotation Zrotation
								JOINT RightHandThumb1
								{
									OFFSET -3.507191 -2.063065 3.133727
									CHANNELS 3 Xrotation Yrotation Zrotation
									JOINT RightHandThumb2
									{
										OFFSET -3.101337 -1.790558 1.790558
										CHANNELS 3 Xrotation Yrotation Zrotation
										JOINT RightHandThumb3
										{
											OFFSET -3.058640 -1.765907 1.765906
											CHANNELS 3 Xrotation Yrotation Zrotation
											End Site
											{
												OFFSET 0.415260 3.926476 -0.049563
											}
										}
									}
								}
								JOINT RightHandIndex1
								{
									OFFSET -11.334419 -0.901459 3.706815
									CHANNELS 3 Xrotation Yrotation Zrotation
									JOINT RightHandIndex2
									{
										OFFSET -3.283112 0.000000 0.000000
										CHANNELS 3 Xrotation Yrotation Zrotation
										JOINT RightHandIndex3
										{
											OFFSET -3.323853 0.000000 0.000000
											CHANNELS 3 Xrotation Yrotation Zrotation
											End Site
											{
												OFFSET 1.135597 3.097809 0.402452
											}
										}
									}
								}
								JOINT RightHandMiddle1
								{
									OFFSET -11.335861 0.000000 0.000000
									CHANNELS 3 Xrotation Yrotation Zrotation
									JOINT RightHandMiddle2
									{
										OFFSET -3.410492 0.000000 0.000000
										CHANNELS 3 Xrotation Yrotation Zrotation
										JOINT RightHandMiddle3
										{
											OFFSET -3.312172 0.000000 0.000000
											CHANNELS 3 Xrotation Yrotation Zrotation
											End Site
											{
												OFFSET 1.150200 3.080154 0.400270
											}
										}
									}
								}
								JOINT RightHandRing1
								{
									OFFSET -11.514786 -0.013176 -3.003090
									CHANNELS 3 Xrotation Yrotation Zrotation
									JOINT RightHandRing2
									{
										OFFSET -3.053307 0.000000 0.000000
										CHANNELS 3 Xrotation Yrotation Zrotation
										JOINT RightHandRing3
										{
											OFFSET -3.295807 0.000000 0.000000
											CHANNELS 3 Xrotation Yrotation Zrotation
											End Site
											{
												OFFSET 1.281006 3.013344 0.375733
											}
										}
									}
								}
								JOINT RightHandPinky1
								{
									OFFSET -10.518692 -0.960396 -5.730441
									CHANNELS 3 Xrotation Yrotation Zrotation
									JOINT RightHandPinky2
									{
										OFFSET -2.861649 0.000000 0.000000
										CHANNELS 3 Xrotation Yrotation Zrotation
										JOINT RightHandPinky3
										{
											OFFSET -2.863380 0.000000 0.000000
											CHANNELS 3 Xrotation Yrotation Zrotation
											End Site
											{
												OFFSET 0.843597 2.711159 0.369971
											}
										}
									}
								}
							}
							JOINT RSleeve
							{
								OFFSET -6.676277 -0.344902 -1.011730
								CHANNELS 3 Xrotation Yrotation Zrotation
								End Site
								{
									OFFSET 0.000000 14.885353 0.000000
								}
							}
						}
					}
				}
				JOINT Backpack
				{
					OFFSET 0.000000 -2.471497 36.677502
					CHANNELS 3 Xrotation Yrotation Zrotation
					End Site
					{
						OFFSET 0.000000 20.427315 0.000000
					}
				}
				JOINT Hood
				{
					OFFSET 0.000000 18.754097 -10.431000
					CHANNELS 3 Xrotation Yrotation Zrotation
					JOINT Hood1
					{
						OFFSET 0.000000 -5.011002 -7.685901
						CHANNELS 3 Xrotation Yrotation Zrotation
						End Site
						{
							OFFSET 0.000000 9.175140 0.000000
						}
					}
				}
				JOINT LHoodieString
				{
					OFFSET 5.250500 16.397697 3.089900
					CHANNELS 3 Xrotation Yrotation Zrotation
					JOINT LHoodieString1
					{
						OFFSET 0.257700 -6.364304 3.694600
						CHANNELS 3 Xrotation Yrotation Zrotation
						JOINT LHoodieString2
						{
							OFFSET 0.000000 -9.643799 2.679100
							CHANNELS 3 Xrotation Yrotation Zrotation
							End Site
							{
								OFFSET 0.000000 10.009018 0.000000
							}
						}
					}
				}
				JOINT RHoodieString
				{
					OFFSET -5.250500 16.397697 3.089900
					CHANNELS 3 Xrotation Yrotation Zrotation
					JOINT RHoodieString1
					{
						OFFSET -0.257700 -6.364304 3.694600
						CHANNELS 3 Xrotation Yrotation Zrotation
						JOINT RHoodieString2
						{
							OFFSET 0.000000 -9.643799 2.679100
							CHANNELS 3 Xrotation Yrotation Zrotation
							End Site
							{
								OFFSET 0.000000 10.009018 0.000000
							}
						}
					}
				}
			}
			JOINT LBackpack_Strap
			{
				OFFSET 15.223200 -7.719803 -6.610900
				CHANNELS 3 Xrotation Yrotation Zrotation
				End Site
				{
					OFFSET 0.000000 16.040596 0.000000
				}
			}
			JOINT RBackpack_Strap
			{
				OFFSET -15.223000 -7.719803 -6.610900
				CHANNELS 3 Xrotation Yrotation Zrotation
				End Site
				{
					OFFSET 0.000000 16.040596 0.000000
				}
			}
		}
	}
	JOINT BoyFacialAnim_Joint
	{
		OFFSET 1.000000 -82.208099 -1.550900
		CHANNELS 3 Xrotation Yrotation Zrotation
		End Site
		{
			OFFSET 0.000000 30.012791 0.000000
		}
	}
}
MOTION
Frames: 4
Frame Time: 0.033333
-10.386594 81.946121 19.620699 5.222394 1.700910 -2.683437 -0.000000 0.000000 -0.000000 4.329530 12.978962 8.173962 6.923209 -6.320050 -1.708519 -8.505331 0.255891 -4.323644 -0.000000 0.000000 0.000000 -0.000000 0.000000 0.000000 0.000001 0.000000 -0.000000 -14.882559 -2.323453 5.693966 18.913504 -9.289594 -1.209361 -7.179551 -6.211021 -2.232094 -0.000000 0.000001 0.000000 -0.000000 0.000001 0.000000 0.000000 0.000001 -0.000000 0.261086 -0.650329 -1.411200 0.653886 -1.327291 -2.072052 0.656163 -1.321233 -2.075196 -0.147843 -1.288529 4.835571 -9.905564 -3.149220 7.505709 -0.000001 0.000000 -0.000000 -0.000001 0.000000 -0.000000 -0.000001 0.000000 -0.000000 2.318827 -8.690033 -4.346413 7.279713 35.074835 -70.722354 -0.000002 -24.146105 0.000008 2.767395 10.059521 28.207093 -0.116916 10.572549 6.462509 -11.440311 3.499635 6.592172 0.000000 -0.000001 0.000000 0.579394 -5.767514 5.830049 0.132938 1.349191 -11.254161 -0.000000 0.000001 -0.000005 0.009734 0.366825 -3.089381 0.945234 3.486942 -30.326026 0.000000 -0.000000 0.000000 0.285932 1.994138 -19.467731 0.925197 3.452513 -29.994933 0.000001 0.000000 -0.000000 1.358836 4.937276 -19.928021 1.037245 -0.443058 -32.052053 0.000000 0.000000 0.000001 0.000001 0.000000 0.000001 -51.971200 2.074881 -26.501226 13.818630 51.204275 -20.384595 -0.000009 19.745962 -0.000016 -38.293835 5.863510 -37.607353 -3.896244 -9.973837 -6.062140 3.142322 -6.107717 -10.166936 0.000000 0.000000 0.000001 1.382404 9.682953 -8.083473 0.044118 -0.783741 6.445189 -0.000001 0.000002 0.000004 0.025932 0.601242 -4.892996 0.260565 -1.889276 15.704248 0.000003 0.000001 -0.000002 -0.842086 -7.629506 -6.540006 0.588756 -2.804913 23.705088 -0.000000 0.000001 0.000000 -0.409748 -15.905185 -2.466437 0.431450 -2.415549 20.251907 -0.000000 -0.000000 0.000000 -0.000001 -0.000000 0.000002 0.000000 -0.000000 0.000001 0.000000 -0.000000 0.000001 0.000000 -0.000000 0.000001 0.000000 -0.000000 0.000001 0.000000 -0.000000 0.000001 0.000000 0.000000 0.000001 0.000000 -0.000000 0.000001 0.000000 -0.000000 0.000001 0.000000 0.000000 0.000001 -0.000000 0.000000 -0.000000 -0.000000 0.000000 -0.000000 -0.000000 0.000000 -0.000000 
-10.387436 81.947067 19.588795 5.189379 1.722690 -2.668690 -0.000000 -0.000000 -0.000000 4.357995 12.989965 8.165830 6.889034 -6.345015 -1.723997 -8.504517 0.255325 -4.312686 -0.000000 -0.000001 0.000000 -0.000000 -0.000001 0.000000 0.000001 -0.000000 -0.000000 -14.924330 -2.316529 5.692944 19.000391 -9.290202 -1.221467 -7.183848 -6.213123 -2.294526 -0.000000 0.000000 -0.000000 -0.000000 0.000000 -0.000000 0.000000 0.000001 0.000000 0.266337 -0.661173 -1.416197 0.663374 -1.349219 -2.079510 0.665647 -1.343184 -2.082686 -0.146533 -1.286227 4.859097 -9.933496 -3.127521 7.547356 0.000000 -0.000000 -0.000000 0.000000 -0.000000 -0.000000 0.000000 -0.000000 -0.000000 2.319886 -8.696397 -4.344071 7.241009 35.086170 -70.664837 0.000010 -24.253153 0.000034 2.777684 10.107690 28.272166 -0.116915 10.572549 6.462506 -11.440306 3.499635 6.592151 -0.000002 0.000002 -0.000002 0.579393 -5.767520 5.830060 0.132941 1.349197 -11.254185 -0.000000 0.000000 -0.000003 0.009734 0.366808 -3.089378 0.945232 3.486948 -30.326002 -0.000001 0.000000 0.000002 0.285932 1.994129 -19.467724 0.925195 3.452513 -29.994940 -0.000000 -0.000001 -0.000000 1.358841 4.937266 -19.928035 1.037247 -0.443054 -32.052018 -0.000002 0.000001 -0.000000 -0.000003 -0.000000 0.000001 -51.971200 2.074882 -26.501257 13.930640 51.171531 -20.479634 0.000002 19.808800 0.000006 -38.209314 5.808734 -37.624623 -3.586323 -10.015830 -6.147362 1.848658 -5.793523 -9.853374 -0.000000 -0.000001 -0.000001 1.368967 9.453626 -8.238339 0.046061 -0.800637 6.584734 -0.000002 -0.000002 0.000005 0.022225 0.556903 -4.527481 0.294002 -2.004276 16.688015 0.000000 0.000001 0.000002 -0.539291 -7.184336 -4.622408 0.606316 -2.844506 24.061163 -0.000001 0.000001 0.000001 0.030805 -14.707965 -0.770489 0.466503 -2.508416 21.067616 0.000000 -0.000000 0.000000 0.000002 -0.000001 -0.000002 0.000000 0.000000 -0.000000 0.000000 0.000000 -0.000000 0.000000 0.000000 -0.000000 0.000000 0.000000 -0.000000 0.000000 0.000000 0.000001 0.000001 0.000000 0.000001 0.000000 0.000000 -0.000000 0.000000 0.000000 0.000001 0.000001 0.000000 0.000001 0.000000 -0.000000 -0.000000 0.000000 -0.000000 -0.000000 -0.000000 -0.000000 -0.000000 
-10.384072 81.946144 19.550581 5.153398 1.755542 -2.648147 -0.000001 0.000000 -0.000000 4.381734 12.992108 8.148911 6.866025 -6.375591 -1.738106 -8.518137 0.252983 -4.295533 0.000000 -0.000000 -0.000000 0.000000 -0.000000 0.000000 -0.000002 -0.000001 0.000000 -14.961794 -2.320074 5.671996 19.081194 -9.298527 -1.229836 -7.182373 -6.233417 -2.305833 0.000000 -0.000000 0.000000 0.000000 -0.000000 0.000000 -0.000001 -0.000000 -0.000000 0.272454 -0.674294 -1.417871 0.674740 -1.375579 -2.084625 0.676971 -1.369582 -2.087844 -0.141146 -1.288454 4.867465 -9.932364 -3.149555 7.606572 -0.000000 0.000000 0.000000 -0.000000 0.000000 0.000000 -0.000000 0.000000 0.000000 2.320859 -8.700887 -4.353217 7.182032 35.056496 -70.572916 0.000005 -24.317569 0.000042 2.799316 10.181765 28.322692 -0.116915 10.572551 6.462511 -11.440304 3.499633 6.592149 0.000000 0.000002 -0.000002 0.579397 -5.767523 5.830061 0.132942 1.349194 -11.254174 -0.000000 0.000001 -0.000003 0.009734 0.366817 -3.089374 0.945242 3.486941 -30.326030 0.000001 0.000000 -0.000003 0.285927 1.994132 -19.467694 0.925196 3.452520 -29.994923 -0.000000 0.000001 -0.000002 1.358842 4.937283 -19.928038 1.037236 -0.443072 -32.051984 -0.000000 -0.000000 0.000001 -0.000002 0.000000 -0.000001 -51.971193 2.074918 -26.501214 13.994104 51.151072 -20.535942 -0.000009 19.863906 -0.000011 -38.216934 5.820271 -37.618435 -3.243002 -10.062777 -6.240464 0.420802 -5.459385 -9.484749 -0.000000 0.000001 0.000001 1.346946 9.190231 -8.380177 0.048590 -0.822213 6.763081 -0.000002 -0.000001 0.000002 0.018225 0.504221 -4.094054 0.334264 -2.133942 17.803677 -0.000000 0.000001 -0.000002 -0.243532 -6.676379 -2.468999 0.626891 -2.890054 24.472318 0.000001 0.000000 0.000002 0.439281 -13.360977 1.121776 0.507611 -2.612471 21.987485 -0.000000 0.000000 -0.000001 -0.000003 0.000001 0.000001 0.000001 0.000000 0.000001 0.000001 0.000000 0.000001 0.000001 0.000000 0.000001 0.000001 0.000000 0.000001 0.000001 0.000000 0.000001 0.000001 0.000000 0.000000 0.000001 0.000000 0.000001 0.000001 0.000000 0.000001 0.000001 0.000000 0.000000 0.000000 0.000000 0.000000 0.000000 0.000000 0.000000 -0.000001 0.000000 -0.000000 
-10.374270 81.945114 19.506527 5.121922 1.798005 -2.617833 0.000000 0.000000 -0.000000 4.385238 12.975656 8.117143 6.867859 -6.429060 -1.747865 -8.538159 0.248641 -4.264231 0.000001 0.000000 0.000000 0.000001 0.000000 0.000000 -0.000001 -0.000001 0.000000 -14.989607 -2.339518 5.632267 19.135427 -9.306135 -1.236615 -7.189445 -6.268743 -2.308001 0.000000 -0.000001 0.000000 0.000000 -0.000001 0.000000 0.000000 -0.000001 0.000000 0.274291 -0.685917 -1.418006 0.677271 -1.398690 -2.090759 0.679431 -1.392764 -2.094009 -0.117487 -1.292019 4.872667 -9.874368 -3.192101 7.704766 -0.000000 0.000000 0.000000 -0.000000 0.000000 0.000000 -0.000000 0.000000 0.000000 2.322378 -8.706656 -4.378077 7.110872 35.005392 -70.456625 0.000003 -24.344864 0.000004 2.779723 10.215361 28.369546 -0.116917 10.572551 6.462509 -11.440300 3.499622 6.592159 -0.000001 -0.000001 -0.000000 0.579397 -5.767513 5.830045 0.132941 1.349197 -11.254190 -0.000001 -0.000001 -0.000000 0.009734 0.366819 -3.089400 0.945239 3.486948 -30.326036 0.000001 -0.000000 0.000002 0.285927 1.994134 -19.467699 0.925195 3.452524 -29.994953 0.000002 -0.000001 -0.000000 1.358839 4.937280 -19.928037 1.037245 -0.443052 -32.052039 -0.000001 0.000000 -0.000000 0.000000 0.000000 0.000001 -51.971189 2.074953 -26.501115 14.015970 51.145983 -20.542103 -0.000002 19.920450 0.000002 -38.237831 5.890960 -37.586958 -2.877419 -10.113207 -6.338101 -1.093849 -5.121479 -9.068701 0.000000 -0.000001 0.000000 1.314831 8.897553 -8.493248 0.051788 -0.848901 6.983568 -0.000000 -0.000000 0.000002 0.014108 0.443671 -3.595849 0.381258 -2.274999 19.025210 0.000000 0.000001 -0.000002 0.023721 -6.120221 -0.136998 0.650252 -2.940790 24.931686 0.000000 -0.000000 0.000002 0.780153 -11.904891 3.159785 0.554197 -2.724887 22.987961 0.000000 0.000000 -0.000003 -0.000003 0.000001 0.000002 0.000001 0.000000 -0.000000 0.000001 0.000000 -0.000000 0.000001 0.000000 -0.000000 0.000001 0.000000 -0.000000 0.000001 0.000000 -0.000000 0.000001 0.000000 -0.000000 0.000001 0.000000 -0.000000 0.000001 0.000000 -0.000000 0.000001 0.000000 -0.000000 0.000000 -0.000000 -0.000000 0.000000 -0.000000 -0.000000 0.000000 0.000000 -0.000000 
